<?xml version="1.0" encoding="UTF-8" standalone="no"?>
<!-- Created with Inkscape (http://www.inkscape.org/) -->

<svg
   viewBox="0 0 526 474"
   version="1.1"
   id="svg1"
   xml:space="preserve"
   xmlns="http://www.w3.org/2000/svg"
   xmlns:svg="http://www.w3.org/2000/svg"><defs
     id="defs1" /><g
     id="layer1"
     transform="translate(90.476067,-79.822769)"><ellipse
       style="fill:#000000;stroke-width:1.30236"
       id="nucleo_espinal_derecho_del_trigemino"
       cx="150.08998"
       cy="176.9435"
       rx="34.855782"
       ry="56.359756"
       transform="matrix(0.80373424,0.59498846,-0.73827214,0.67450296,0,0)" /><ellipse
       style="fill:#000000;stroke-width:1.30236"
       id="nucleo_espinal_izquierdo_del_trigemino"
       cx="-91.756386"
       cy="403.73178"
       rx="34.855782"
       ry="56.359756"
       transform="matrix(-0.80373424,0.59498846,0.73827214,0.67450296,0,0)" /><path
       style="fill:#000000"
       d="m 168.50453,385.83053 -3.97413,127.17206 -27.15653,18.54592 -26.49418,14.5718 -39.078917,3.97413 -31.79301,-4.63648 -13.90944,-7.2859 -5.29884,-9.93532 -19.870634,-11.92238 -14.571798,-35.76714 19.208279,-50.33894 38.416563,-34.44243 74.846047,-35.76714 25.16947,-0.66236 17.88357,13.24709 z"
       id="piramide_derecha" /><path
       style="fill:#000000"
       d="m 169.82923,382.51876 22.52006,-19.20828 13.90944,-3.31177 43.71539,15.89651 37.09185,19.20827 35.10479,35.10479 17.88357,35.76714 2.64942,27.81889 -11.26003,22.52005 -27.81888,26.49418 -25.83183,9.93532 H 231.4282 l -39.07891,-17.22122 -7.2859,-13.90944 -17.22122,-9.93532 z"
       id="piramide_izquierda" /><g
       id="nucleo_olivar_inferior_derecho"><path
         style="fill:#000000"
         d="m 75.774903,287.13972 -10.59767,5.96119 -3.31177,2.64941 1.32471,4.63649 9.27296,3.31177 -3.97413,1.32471 -11.26002,4.63648 -3.97413,5.29883 -0.66236,3.97413 -13.24709,11.92238 v 5.96119 11.26003 l -5.96119,9.93531 3.97413,3.97413 h 15.89651 l -13.24709,13.90945 v 4.63648 h 6.62354 l 12.58474,-13.24709 v -11.92238 l -7.94825,-5.29884 -3.97413,-7.2859 11.92238,-6.62354 -8.61061,-5.29884 18.54593,-10.59767 -8.61061,-6.62354 17.88357,-4.63649 3.97412,-13.90944 z"
         id="path2" /><path
         style="fill:#000000"
         d="m 114.85381,314.9586 -6.62354,5.29884 -5.96119,15.23415 -3.311767,6.62355 -6.62355,4.63648 -3.97412,6.62354 -1.98707,4.63648 4.63648,5.29884 21.195347,-11.26003 3.31177,-10.59767 1.32471,-9.93531 0.66235,-11.26003 z"
         id="path3" /></g><g
       id="nucleo_olivar_inferior_izquierdo"><path
         style="fill:#000000"
         d="m 285.58027,298.13263 -6.33803,-2.8169 -7.74648,7.04225 6.33803,11.26761 14.08451,7.04225 -3.52113,7.04225 11.97183,7.74648 -2.11268,2.8169 h -6.33802 l 8.4507,11.97184 v 5.6338 l -9.85915,2.8169 v 19.71831 l 15.49295,11.97183 0.70423,-4.22535 -8.45071,-14.08451 v -4.22535 l 12.67606,2.11268 4.22535,-11.97184 -4.92957,-10.56338 2.8169,-10.56338 -11.97183,-9.85915 -0.70423,-11.97183 -16.19718,-5.63381 7.04225,-2.8169 z"
         id="path4" /><path
         style="fill:#000000"
         d="m 229.94647,315.03404 8.4507,29.57746 -0.70423,4.92958 17.60564,16.90141 7.74648,-3.52113 -7.74648,-17.60563 -7.04226,-9.85916 -6.33802,-21.12676 z"
         id="path5" /></g><ellipse
       style="fill:#000000"
       id="nucleo_derecho_del_nervio_accesorio"
       cx="66.918297"
       cy="271.01996"
       rx="11.619719"
       ry="9.5070419" /><ellipse
       style="fill:#000000"
       id="nucleo_izquierdo_del_nervio_accesorio"
       cx="284.18591"
       cy="272.07629"
       rx="11.619719"
       ry="9.5070419" /><path
       style="fill:#000000"
       d="m 180.65069,169.25939 10.56338,-1.40845 7.04225,-8.45071 -8.4507,-20.42253 2.8169,-31.69014 13.38028,-2.8169 40.84507,9.85915 9.85916,13.38028 -22.53521,24.64789 -6.33803,10.56338 2.8169,2.8169 -8.4507,-1.40845 6.33802,-30.98591 -27.46478,-2.11268 0.70422,25.35211 -11.2676,14.08451 z"
       id="nucleo_gracil_izquierdo" /><path
       style="fill:#000000"
       d="m 187.05914,166.37206 -10.56338,-1.40845 -7.04225,-8.45071 8.4507,-20.42253 -2.8169,-31.69014 -13.38028,-2.8169 -40.84507,9.85915 -9.85916,13.38028 22.53521,24.64789 6.33803,10.56338 -2.8169,2.8169 8.4507,-1.40845 -6.33802,-30.98591 27.46478,-2.11268 -0.70422,25.35211 11.2676,14.08451 z"
       id="nucleo_gracil_derecho" /><path
       style="fill:#000000"
       d="m 67.974633,232.63967 7.74648,-17.60563 -0.70422,-11.26761 -8.45071,-11.97183 -21.83098,-19.01409 v -16.19718 l 14.0845,-15.49296 19.71831,-4.22535 26.056337,7.04226 26.76057,21.12676 h 5.6338 l -4.92958,35.21127 h -16.19718 l -17.605637,-41.5493 -30.98591,8.4507 30.98591,43.66198 z"
       id="nucleo_cuneiforme_derecho" /><path
       style="fill:#000000"
       d="m 295.66478,237.09038 -7.74648,-17.60563 0.70422,-11.26761 8.45071,-11.97183 21.83098,-19.01409 v -16.19718 l -14.0845,-15.49296 -19.71831,-4.22535 -26.05634,7.04226 -26.76057,21.12676 h -5.6338 l 4.92958,35.21127 h 16.19718 l 17.60564,-41.5493 30.98591,8.4507 -30.98591,43.66198 z"
       id="nucleo_cuneiforme_izquierdo" /><path
       style="fill:#000000"
       d="m 177.83379,227.00587 -5.6338,9.15493 v 8.4507 l 2.8169,3.52113 6.33803,0.70422 4.92957,-7.04225 -0.70422,-14.08451 z"
       id="conducto_central" /><ellipse
       style="fill:#000000"
       id="nucleo_hipogloso_derecho"
       cx="160.58026"
       cy="256.58331"
       rx="7.3943663"
       ry="6.338028" /><ellipse
       style="fill:#000000"
       id="nucleo_hipogloso_izquierdo"
       cx="193.21408"
       cy="254.68193"
       rx="7.3943663"
       ry="6.338028" /><path
       style="fill:#000000"
       d="m 162.34083,132.63967 -16.19718,98.59155 11.2676,42.25352 21.83099,19.71831 30.98592,12.67606 -54.22536,-31.69014 -9.85915,-45.07043 z"
       id="path9" /><g
       id="fibras_arcuatas_internas_derechas"><path
         style="fill:#000000"
         d="m 70.791543,166.44249 26.05633,34.50704 24.647887,57.04225 20.42254,38.7324 28.16901,31.69014 38.02817,18.30986 -35.91549,-18.30986 -33.80282,-33.09859 -40.845067,-91.5493 z"
         id="path6" /><path
         style="fill:#000000"
         d="m 92.622523,162.92136 18.309857,35.91549 16.19718,56.33803 29.57747,47.88733 54.22535,33.09859 -54.22535,-33.80282 -29.57747,-45.77465 -18.30986,-64.78873 z"
         id="path7" /><path
         style="fill:#000000"
         d="m 150.369,134.75235 -12.67606,99.29577 14.78874,42.25352 33.80281,30.28169 30.28169,14.08451 -64.78873,-43.66197 -12.67606,-41.5493 z"
         id="path8" /><path
         style="fill:#000000"
         d="m 138.39717,163.62559 -4.22535,71.12676 6.33803,42.95774 23.94366,26.76057 46.47887,20.42253 -45.07042,-21.12676 -27.46479,-26.76056 -4.92958,-40.84507 z"
         id="path10" /></g><path
       style="fill:#000000"
       d="m 212.34083,138.9777 4.22535,80.28169 -9.85915,50.70423 -52.11268,39.43661 -17.60563,8.45071 68.30986,-45.07042 11.2676,-51.40845 z"
       id="path12" /><g
       id="fibras_arcuatas_internas_izquierdas"><path
         style="fill:#000000"
         d="m 198.96055,148.83685 13.38028,73.23944 -7.74648,31.69014 -23.94366,32.39437 -40.84507,20.42253 45.07042,-21.83098 21.12676,-32.39437 8.45071,-34.50704 z"
         id="path11" /><path
         style="fill:#000000"
         d="m 224.31266,141.7946 v 62.67606 l -4.22535,51.40845 -14.78873,30.98591 -30.98592,23.94367 -36.61972,11.97183 42.95775,-13.38029 23.23944,-21.12676 16.90141,-30.98591 z"
         id="path13" /><path
         style="fill:#000000"
         d="m 267.27041,169.25939 -22.53521,47.1831 -16.19719,37.32394 -26.05633,39.43662 -30.98592,26.76057 -38.73239,14.78873 40.84507,-16.19719 33.09859,-28.87324 15.49296,-27.46478 z"
         id="path14" /><path
         style="fill:#000000"
         d="m 289.80562,172.78051 -35.91549,45.77465 -23.94366,47.88733 -28.16902,38.73239 -24.64789,25.35212 -35.91549,10.56338 33.09859,-11.26761 57.04226,-63.38028 26.05633,-52.8169 z"
         id="path15" /></g><rect
       style="fill:#000000"
       id="decusacion_de_los_lemniscos_mediales"
       width="116.90141"
       height="73.943665"
       x="118.67886"
       y="284.04813" /><path
       style="fill:#000000"
       d="m -60.898602,262.92136 21.12676,33.09859 11.267606,38.02817 -6.338028,41.5493 -45.774648,-26.76057 z"
       id="tracto_espinotalamico_lateral_derecho" /><path
       style="fill:#000000"
       d="m 410.05915,273.69601 -21.12677,33.09859 -11.2676,38.02817 6.33802,41.5493 45.77466,-26.76057 z"
       id="tracto_espinotalamico_lateral_izquierdo" /><path
       style="fill:#000000"
       d="m -75.687335,207.99178 13.380282,28.87324 0.704225,26.76057 -23.239436,81.69014 -5.633803,2.8169 1.408451,-115.49296 z"
       id="tracto_espinocerebeloso_posterior_derecho" /><path
       style="fill:#000000"
       d="m 430.65069,229.11854 -9.85915,16.90141 -7.04226,33.80282 17.60564,84.50704 3.52112,-26.76056 1.40845,-97.1831 z"
       id="tracto_espinocerebeloso_posterior_izquierdo" /><path
       style="fill:#000000"
       d="m -89.067616,350.24531 24.647887,8.4507 30.985916,28.87324 23.943661,40.84507 -2.112676,28.87324 -4.929577,16.90141 -27.464789,-31.69014 -28.169014,-44.3662 z"
       id="tracto_espinocerebeloso_anterior_derecho" /><path
       style="fill:#000000"
       d="m 426.2845,361.82277 -24.64789,8.4507 -30.98592,28.87324 -23.94366,40.84507 2.11268,28.87324 4.92957,16.90141 27.46479,-31.69014 28.16902,-44.3662 z"
       id="tracto_espinocerebeloso_anterior_izquierdo" /></g></svg>
