<?xml version="1.0" encoding="UTF-8" standalone="no"?>
<!-- Created with Inkscape (http://www.inkscape.org/) -->

<svg
   viewBox="0 0 340 529"
   version="1.1"
   id="svg1"
   xml:space="preserve"
   sodipodi:docname="nervios_craneales.svg"
   inkscape:version="1.4.3 (0d15f75, 2025-12-25)"
   xmlns:inkscape="http://www.inkscape.org/namespaces/inkscape"
   xmlns:sodipodi="http://sodipodi.sourceforge.net/DTD/sodipodi-0.dtd"
   xmlns="http://www.w3.org/2000/svg"
   xmlns:svg="http://www.w3.org/2000/svg"><sodipodi:namedview
     id="namedview1"
     pagecolor="#ffffff"
     bordercolor="#000000"
     borderopacity="0.25"
     inkscape:showpageshadow="2"
     inkscape:pageopacity="0.0"
     inkscape:pagecheckerboard="0"
     inkscape:deskcolor="#d1d1d1"
     inkscape:zoom="1.4612476"
     inkscape:cx="170.06016"
     inkscape:cy="264.5"
     inkscape:window-width="1920"
     inkscape:window-height="991"
     inkscape:window-x="-9"
     inkscape:window-y="-9"
     inkscape:window-maximized="1"
     inkscape:current-layer="svg1" /><defs
     id="defs1" /><g
     id="layer1"
     transform="translate(-86,8.5)"><ellipse
       style="fill:#000000"
       id="nucleus_of_oculomotor_nerve"
       cx="274.77103"
       cy="46.475418"
       rx="11.92238"
       ry="19.208279" /><ellipse
       style="fill:#000000"
       id="nucleus_of_throclear_nerve"
       cx="275.1022"
       cy="78.26844"
       rx="10.928848"
       ry="11.260026" /><ellipse
       style="fill:#000000"
       id="accesory_nuclei_of_oculomotor_nerve"
       cx="256.2251"
       cy="55.086025"
       rx="5.2988358"
       ry="8.6106081" /><ellipse
       style="fill:#000000"
       id="motor_nucleus_of_trigeminal_nerve"
       cx="284.04401"
       cy="158.74451"
       rx="9.935317"
       ry="17.552393" /><ellipse
       style="fill:#000000"
       id="motor_nucleus_of_facial_nerve"
       cx="352.71091"
       cy="163.54692"
       rx="10.266494"
       ry="19.539457"
       transform="rotate(19.248781)" /><ellipse
       style="fill:#000000"
       id="nucleus_of_abducens_nerve"
       cx="172.78792"
       cy="321.92725"
       rx="6.6235447"
       ry="14.902975"
       transform="rotate(-18.008345)" /><ellipse
       style="fill:#000000"
       id="superior_salivary_nucleus"
       cx="301.92755"
       cy="257.4353"
       rx="7.2858992"
       ry="7.6170764" /><ellipse
       style="fill:#000000"
       id="lacrimal_nucleus"
       cx="299.60931"
       cy="277.30594"
       rx="8.2794304"
       ry="10.928848" /><ellipse
       style="fill:#000000"
       id="inferior_salivatory_nucleus"
       cx="303.91461"
       cy="291.87775"
       rx="5.9611902"
       ry="5.630013" /><path
       style="fill:#000000"
       d="m 235.02975,306.11837 -9.93531,-1.32471 -0.66236,8.61061 1.98707,17.22122 1.32471,25.16946 3.31177,21.8577 -1.32471,15.89651 3.97413,20.53299 4.63648,1.32471 3.97412,-16.55887 -5.96119,-32.45536 -2.64941,-51.66365 z"
       id="nuclei_of_solitary_tract" /><path
       style="fill:#000000"
       d="m 261.52393,314.06662 -5.96119,7.94826 1.32471,36.42949 2.64942,31.79302 0.66235,28.48124 2.64942,9.93532 5.96119,-7.94826 -0.66235,-15.23415 -4.63648,-23.18241 1.98706,-37.09185 0.66235,-17.88357 0.66236,-9.93531 z"
       id="nucleus_of_hypoglossal_nerve" /><path
       style="fill:#000000"
       d="m 271.45925,305.45602 -1.98706,14.57179 2.64941,60.27426 v 27.81889 9.27296 l 5.29884,0.66235 3.97413,-17.22121 -2.64942,-35.76714 -0.66236,-27.15654 1.32471,-23.84476 -0.66235,-4.63648 z"
       id="dorsal_nucleus_of_vagal_nerve" /><path
       style="fill:#000000"
       d="m 283.38163,304.79366 9.27296,3.97413 -1.32471,23.1824 1.32471,36.4295 1.32471,17.22122 -3.31177,3.31177 -5.29884,-4.63648 -3.31177,-25.16947 3.97413,-23.84476 -2.64942,-22.52006 z"
       id="nucleus_ambiguus" /><path
       style="fill:#000000"
       d="m 236.35446,35.215395 -1.98706,23.182406 -2.64942,29.805951 -2.64942,39.741268 -5.29883,21.8577 -0.66236,15.23415 -4.63648,9.27296 -5.96119,9.93532 6.62355,-4.63648 4.63648,3.31177 6.62354,0.66235 -3.31177,-10.59767 5.29884,-11.26002 v -15.89651 l 1.98706,-16.55886 1.98706,-13.24709 1.32471,-23.84476 5.29884,-60.274258 z"
       id="mesencephalic_nucleus_of_trigeminal_nerve" /><ellipse
       style="fill:#000000"
       id="principal_sensory_nucleus_of_trigeminal_nerve"
       cx="221.45149"
       cy="199.14813"
       rx="15.56533"
       ry="21.52652" /><path
       style="fill:#000000"
       d="m 215.82147,220.01229 5.96119,15.23415 0.66236,17.22122 -2.64942,23.84476 -3.97413,17.88357 -2.64941,33.11772 2.64941,29.80595 3.97413,35.76714 7.2859,52.98836 2.64942,41.06598 1.98706,28.48124 7.2859,1.98706 -5.29883,-28.48124 2.64941,-19.20828 -2.64941,-15.8965 -3.31178,-29.80596 -2.64941,-17.88357 -2.64942,-18.54592 v -33.78008 l -1.98707,-23.1824 v -33.78008 l 3.97413,-32.45537 v -33.78008 l -2.64942,-10.59767 z"
       id="spinal_nucleus_of_trigeminal_nerve" /><ellipse
       style="fill:#000000"
       id="superior_vestibular_nucleus"
       cx="206.54851"
       cy="249.81824"
       rx="5.9611902"
       ry="9.2729626" /><ellipse
       style="fill:#000000"
       id="medial_vestibular_nucleus"
       cx="212.84088"
       cy="271.01358"
       rx="4.9676585"
       ry="9.935317" /><ellipse
       style="fill:#000000"
       id="lateral_vestibular_nucleus"
       cx="198.26907"
       cy="267.03946"
       rx="6.9547219"
       ry="9.935317" /><ellipse
       style="fill:#000000"
       id="inferior_vestibular_nucleus"
       cx="208.53558"
       cy="294.52716"
       rx="9.935317"
       ry="12.915912" /><ellipse
       style="fill:#000000"
       id="anterior_cochlear_nucleus"
       cx="184.02846"
       cy="274.9877"
       rx="5.9611902"
       ry="6.6235447" /><circle
       style="fill:#000000"
       id="posterior_cochlear_nucleus"
       cx="182.37257"
       cy="284.59186"
       r="7.6170764" /></g></svg>
