<?xml version="1.0" encoding="UTF-8" standalone="no"?>
<!-- Created with Inkscape (http://www.inkscape.org/) -->

<svg
   viewBox="0 0 560 446"
   version="1.1"
   id="svg1"
   xml:space="preserve"
   xmlns="http://www.w3.org/2000/svg"
   xmlns:svg="http://www.w3.org/2000/svg"><defs
     id="defs1" /><g
     id="layer1"
     transform="translate(24.683054,-44.406208)"><ellipse
       style="fill:#000000;stroke-width:1.26702"
       id="nucleo_vestibular_inferior_derecho"
       cx="136.75461"
       cy="-59.682632"
       rx="29.285597"
       ry="34.930878"
       transform="matrix(0.46254693,0.8865948,-0.89042681,0.45512647,0,0)" /><ellipse
       style="fill:#000000;stroke-width:1.26702"
       id="nucleo_vestibular_inferior_izquierdo"
       cx="131.23697"
       cy="388.37857"
       rx="29.285597"
       ry="34.930878"
       transform="matrix(0.52199416,-0.85294906,0.84855992,0.52909929,0,0)" /><ellipse
       style="fill:#000000"
       id="nucleo_derecho_del_tracto_solitario"
       cx="35.54641"
       cy="178.07587"
       rx="11.591203"
       ry="14.240621"
       transform="rotate(-52.627484)" /><ellipse
       style="fill:#000000"
       id="nucleo_vestibular_medial_derecho"
       cx="55.064915"
       cy="175.06876"
       rx="11.591203"
       ry="14.240621"
       transform="rotate(-52.627484)" /><ellipse
       style="fill:#000000"
       id="nucleo_vestibular_medial_izquierdo"
       cx="272.59552"
       cy="-212.11732"
       rx="11.591203"
       ry="14.240621"
       transform="rotate(48.504382)" /><ellipse
       style="fill:#000000"
       id="nucleo_izquierdo_del_tracto_solitario"
       cx="292.91119"
       cy="-208.72537"
       rx="11.591203"
       ry="14.240621"
       transform="rotate(48.504382)" /><ellipse
       style="fill:#000000"
       id="nucleo_coclear_posterior_derecho"
       cx="98.707771"
       cy="76.25853"
       rx="13.247089"
       ry="6.2923675"
       transform="rotate(-9.9870776)" /><ellipse
       style="fill:#000000"
       id="nucleo_coclear_posterior_izquierdo"
       cx="358.24496"
       cy="-190.25375"
       rx="13.247089"
       ry="6.2923675"
       transform="rotate(36.096234)" /><ellipse
       style="fill:#000000;stroke-width:1.48467"
       id="tracto_y_nucleos_espinales_derechos_del_trigemino"
       cx="148.88043"
       cy="114.65268"
       rx="12.1919"
       ry="26.174709"
       transform="matrix(0.86656222,0.49906905,-0.64441136,0.76467902,0,0)" /><ellipse
       style="fill:#000000;stroke-width:1.48467"
       id="tracto_y_nucleos_espinales_izquierdos_del_trigemino"
       cx="260.93344"
       cy="458.47629"
       rx="12.1919"
       ry="26.174709"
       transform="matrix(0.66206187,-0.74944918,0.62059448,0.78413168,0,0)" /><path
       style="fill:#000000"
       d="m 63.41009,60.302715 3.311772,7.285899 0.662354,6.623545 0.662355,7.948253 v 6.623545 6.623545 l -0.662355,8.610608 -3.311772,12.58473 -1.987063,5.29884 -1.987064,7.94825 -1.987063,10.59767 -5.298836,3.97413 -3.311772,7.2859 -3.311772,1.98707 -11.922381,15.8965 -2.649418,6.62355 -7.285899,8.61061 -9.935317,11.26002 -1.324709,-2.64942 -7.948253,-0.66235 H 2.473479 -4.150066 l -1.324709,0.66235 -3.974126,2.64942 -13.24709,-14.5718 0.662355,-15.23415 7.948253,-23.18241 26.494179,-51.001291 21.857697,-22.520051 z"
       id="pedunculo_cerebeloso_inferior_derecho" /><path
       style="fill:#000000"
       d="m 448.27943,58.899097 -3.31177,7.2859 -0.66236,6.62354 -0.66235,7.94825 v 6.62355 6.62354 l 0.66235,8.610613 3.31177,12.58473 1.98707,5.29884 1.98706,7.94825 1.98706,10.59767 5.29884,3.97413 3.31177,7.2859 3.31177,1.98707 11.92239,15.8965 2.64941,6.62355 7.2859,8.61061 9.93532,11.26002 1.32471,-2.64942 7.94825,-0.66235 h 2.64942 6.62355 l 1.32471,0.66235 3.97412,2.64942 13.24709,-14.5718 -0.66235,-15.23415 -7.94825,-23.18241 -26.49419,-51.001293 -21.85769,-22.52005 z"
       id="pedunculo_cerebeloso_inferior_izquierdo" /><path
       style="fill:#000000"
       d="m 3.135833,192.77361 h 5.298836 l 5.298836,1.32471 0.662354,0.66235 -5.298835,5.29884 -1.324709,1.98706 -3.974127,1.98707 -7.285899,-3.97413 -1.324709,-1.32471 h -1.324709 l -3.974127,-0.66235 7.948254,-3.97413 z"
       id="nucleo_coclear_anterior_derecho" /><path
       style="fill:#000000"
       d="m 511.5705,191.45666 h 5.29884 l 5.29883,1.32471 0.66236,0.66235 -5.29884,5.29884 -1.32471,1.98706 -3.97412,1.98707 -7.2859,-3.97413 -1.32471,-1.32471 h -1.32471 l -3.97413,-0.66235 7.94826,-3.97413 z"
       id="path6-4" /><path
       style="fill:#000000"
       d="m 256.15524,98.05692 11.92238,6.62354 3.97413,11.92238 -32.45537,-0.66235 6.62355,-14.5718 z"
       id="fasciculo_longitudinal_medial" /><path
       style="fill:#000000"
       d="m 230.32342,183.50065 52.326,1.32471 -9.93532,-68.22252 h -31.79301 z"
       id="tracto_tectoespinal" /><path
       style="fill:#000000"
       d="m 229.66106,183.50065 -18.54592,125.18499 3.31177,7.94825 9.93532,6.62355 12.58473,-1.98706 22.52005,-7.94826 14.5718,9.27296 20.53299,-1.98706 8.61061,-9.93532 -19.87063,-127.17205 z"
       id="lemnisco_medial" /><path
       style="fill:#000000"
       d="m 346.8978,190.78655 -17.22121,7.2859 -5.29884,9.27296 42.39069,-0.66236 3.97412,-6.62354 -13.90944,-6.62355 z"
       id="nucleo_olivar_accesorio_dorsal_izquierdo" /><path
       style="fill:#000000"
       d="m 162.76326,196.74774 -13.24709,0.66235 -4.63648,5.29884 6.62355,2.64941 h 5.96119 11.92238 7.2859 l 5.96119,-4.63648 -2.64942,-3.97412 -6.62355,-0.66236 z"
       id="nucleo_olivar_accesorio_dorsal_derecho" /><path
       style="fill:#000000"
       d="m 168.72445,208.67012 -14.57179,2.64941 -0.66236,9.93532 9.93532,9.27296 -12.58474,1.32471 -8.61061,-9.93531 -0.66235,7.2859 13.24709,15.8965 -4.63648,9.93532 -7.94826,-3.31177 -5.29883,-17.22122 -11.92238,-2.64942 -3.31177,7.2859 6.62354,31.13066 -10.59767,2.64942 -5.96119,-7.2859 -5.29884,0.66236 v 22.52005 l -8.610604,12.58473 -10.59768,-8.61061 -1.3247,-12.58473 -16.558866,-13.90944 -27.818888,17.88357 -3.311772,7.94825 0.662354,5.96119 -17.88357,31.79301 2.649418,7.2859 7.948253,12.58474 14.571799,3.31177 1.324708,15.89651 11.922381,7.94825 16.558863,-9.27296 16.55886,1.98706 7.948254,-5.96119 v -7.2859 h 17.22122 l 11.26003,9.27296 5.29883,-5.96119 18.54593,4.63649 -0.66236,-17.22122 -5.96119,-12.58474 0.66236,-0.66235 12.58473,3.97413 3.97413,-7.94826 -7.2859,-7.94825 -11.92238,-2.64942 -8.61061,0.66236 -3.31177,15.23415 5.29883,8.61061 -6.62354,6.62354 -5.29884,-6.62354 -1.98706,-10.59767 h -7.2859 l -7.2859,7.94825 H 97.852526 l -1.98707,9.27296 -22.520049,7.2859 0.662354,-14.5718 -1.987063,-1.32471 5.961188,-18.54592 -4.636479,-9.93532 -8.610608,-0.66235 -7.2859,4.63648 1.324709,7.94825 v 11.26003 l -9.935317,4.63648 -5.298835,-9.93532 -5.298836,-10.59767 13.247089,-17.22121 v -10.59768 l 12.584735,9.27297 2.649418,-17.22122 5.96119,-5.29884 4.636484,21.8577 23.182404,15.23415 13.24709,-13.24708 1.32471,-20.53299 5.29884,1.98706 11.92238,7.94825 7.94825,-0.66235 0.66236,-22.52005 1.3247,-2.64942 10.59768,9.93532 5.96119,-15.23416 12.58473,-5.29883 4.63648,-13.24709 0.66236,-11.26003 -9.93532,-14.5718 7.2859,-0.66235 1.32471,-3.97413 z"
       id="nucleo_olivar_inferior_derecho" /><path
       style="fill:#000000"
       d="m 345.40363,211.53946 14.57179,2.64941 0.66236,9.93532 -9.93532,9.27296 12.58474,1.32471 8.61061,-9.93531 0.66235,7.2859 -13.24709,15.8965 4.63648,9.93532 7.94826,-3.31177 5.29883,-17.22122 11.92238,-2.64942 3.31177,7.2859 -6.62354,31.13066 10.59766,2.64942 5.96119,-7.2859 5.29884,0.66236 v 22.52005 l 8.61061,12.58473 10.59768,-8.61061 1.3247,-12.58473 16.55886,-13.90944 27.81889,17.88357 3.31177,7.94825 -0.66235,5.96119 17.88357,31.79301 -2.64942,7.2859 -7.94825,12.58474 -14.5718,3.31177 -1.32471,15.89651 -11.92238,7.94825 -16.55886,-9.27296 -16.55886,1.98706 -7.94826,-5.96119 v -7.2859 h -17.22122 l -11.26002,9.27296 -5.29883,-5.96119 -18.54593,4.63649 0.66236,-17.22122 5.96119,-12.58474 -0.66236,-0.66235 -12.58473,3.97413 -3.97413,-7.94826 7.2859,-7.94825 11.92238,-2.64942 8.61061,0.66236 3.31177,15.23415 -5.29883,8.61061 6.62354,6.62354 5.29884,-6.62354 1.98706,-10.59767 h 7.28589 l 7.2859,7.94825 h 11.26003 l 1.98707,9.27296 22.52005,7.2859 -0.66236,-14.5718 1.98707,-1.32471 -5.96119,-18.54592 4.63648,-9.93532 8.61061,-0.66235 7.2859,4.63648 -1.32471,7.94825 v 11.26003 l 9.93531,4.63648 5.29884,-9.93532 5.29883,-10.59767 -13.24708,-17.22121 v -10.59768 l -12.58474,9.27297 -2.64942,-17.22122 -5.96119,-5.29884 -4.63648,21.8577 -23.18241,15.23415 -13.24709,-13.24708 -1.32471,-20.53299 -5.29884,1.98706 -11.92237,7.94825 -7.94825,-0.66235 -0.66236,-22.52005 -1.3247,-2.64942 -10.59768,9.93532 -5.96119,-15.23416 -12.58473,-5.29883 -4.63648,-13.24709 -0.66236,-11.26003 9.93532,-14.5718 -7.2859,-0.66235 -1.32471,-3.97413 z"
       id="nucleo_olivar_inferior_izquierdo" /><ellipse
       style="fill:#000000;stroke-width:0.809936"
       id="tracto_espinotalamico_lateral_derecho"
       cx="16.124561"
       cy="242.64128"
       rx="26.37215"
       ry="15.125142"
       transform="matrix(0.96422113,-0.26509925,0.25731089,0.96632867,0,0)" /><ellipse
       style="fill:#000000;stroke-width:0.809936"
       id="tracto_espinotalamico_lateral_izquierdo"
       cx="-483.7229"
       cy="106.24992"
       rx="26.37215"
       ry="15.125142"
       transform="matrix(-0.96422113,-0.26509925,-0.25731089,0.96632867,0,0)" /><path
       style="fill:#000000"
       d="m 21.681758,206.68305 17.221216,11.26003 2.649418,20.53299 -6.623544,15.8965 -9.935317,12.58474 -7.948254,3.31177 9.935317,-34.44243 -10.597671,-25.83182 z"
       id="tracto_espinocerebeloso_anterior_derecho" /><path
       style="fill:#000000;stroke-width:0.984251"
       d="m 489.94307,202.69469 -17.22121,10.90816 -2.64942,19.89133 6.62354,15.39974 9.93532,12.19146 7.94825,3.20828 -9.93531,-33.3661 10.59767,-25.02458 z"
       id="path14-6" /><path
       style="fill:#000000"
       d="m 332.326,52.354462 -154.99094,-0.662355 25.83182,19.870634 13.90945,-7.285899 10.59767,1.987063 13.24709,8.610608 15.23415,15.234153 15.89651,-17.221216 15.89651,-5.96119 21.19534,3.974127 7.2859,-6.623545 9.93531,-0.662355 z"
       id="cavidad_del_cuarto_ventriculo" /><ellipse
       style="fill:#000000;stroke-width:0.992733"
       id="nucleo_olivar_accesorio_medial_derecho"
       cx="336.98212"
       cy="122.76839"
       rx="5.7900128"
       ry="20.161821"
       transform="matrix(0.76833293,0.64005039,-0.53231742,0.84654484,0,0)" /><ellipse
       style="fill:#000000;stroke-width:0.992733"
       id="nucleo_olivar_accesorio_medial_izquierdo"
       cx="-102.18326"
       cy="457.07748"
       rx="5.7900128"
       ry="20.161821"
       transform="matrix(-0.76833293,0.64005039,0.53231742,0.84654484,0,0)" /><path
       style="fill:#000000"
       d="m 87.254853,451.09185 61.598967,-79.48254 55.63778,-39.07891 47.68952,-9.27296 47.68952,5.96119 45.0401,29.14359 43.7154,41.72834 33.78008,50.33893 -27.15654,25.83183 -29.80595,13.90944 -47.02716,-2.64942 -27.81889,-17.88357 -35.10479,-68.22251 -27.81889,54.31307 -29.14359,29.80595 -41.06598,5.96119 -48.35188,-15.23415 z"
       id="piramide" /><path
       style="fill:#00ffff"
       d="m 256.15524,396.77878 -13.90944,3.31178 -13.90945,20.53299 -10.59767,34.44243 0.66236,16.55886 35.10478,-66.23545 5.29884,0.66236 23.18241,52.98835 13.24709,12.58474 -10.59768,-50.33894 -19.20828,-23.84476 z"
       id="nucleos_arcuatos" /></g></svg>
