<?xml version="1.0" encoding="UTF-8" standalone="no"?>
<!-- Created with Inkscape (http://www.inkscape.org/) -->

<svg
   viewBox="0 0 433 395"
   version="1.1"
   id="svg1"
   xml:space="preserve"
   inkscape:version="1.4.3 (0d15f75, 2025-12-25)"
   sodipodi:docname="nucleos_trigemino.svg"
   inkscape:export-filename="pons-medulla-model\src\img\nucleos_trigemino.svg"
   inkscape:export-xdpi="96"
   inkscape:export-ydpi="96"
   xmlns:inkscape="http://www.inkscape.org/namespaces/inkscape"
   xmlns:sodipodi="http://sodipodi.sourceforge.net/DTD/sodipodi-0.dtd"
   xmlns:xlink="http://www.w3.org/1999/xlink"
   xmlns="http://www.w3.org/2000/svg"
   xmlns:svg="http://www.w3.org/2000/svg"><sodipodi:namedview
     id="namedview1"
     pagecolor="#ffffff"
     bordercolor="#000000"
     borderopacity="0.25"
     inkscape:showpageshadow="2"
     inkscape:pageopacity="0.0"
     inkscape:pagecheckerboard="0"
     inkscape:deskcolor="#d1d1d1"
     inkscape:document-units="px"
     inkscape:zoom="1.33"
     inkscape:cx="218.04511"
     inkscape:cy="203.38346"
     inkscape:window-width="1920"
     inkscape:window-height="991"
     inkscape:window-x="-9"
     inkscape:window-y="1071"
     inkscape:window-maximized="1"
     inkscape:current-layer="layer1" /><defs
     id="defs1" /><g
     inkscape:label="Capa 1"
     inkscape:groupmode="layer"
     id="layer1"
     transform="translate(-36.375938,-72.362274)"><path
       style="fill:#000000"
       d="m 209.77068,254.3134 -48.1203,8.27068 h -14.28572 l -9.02255,12.03008 5.26316,12.03007 3.75939,6.01504 33.08271,27.81955 h 3.00752 l 7.5188,3.7594 9.77443,2.25564 10.52632,2.25563 h 8.27068 l 16.54135,-6.76691 9.02256,-9.02256 7.51879,-14.28571 v -9.77444 l -4.51128,-15.78947 -4.51127,-9.02256 -8.27068,-6.01504 -16.54135,-4.51128 z"
       id="lemnisco_medial_derecho" /><path
       style="fill:#000000"
       d="m 290.16165,249.48204 48.1203,4.14608 14.28572,-1.22449 9.02255,11.25672 -5.26316,12.4812 -3.75939,6.33727 -33.08271,30.65521 -3.00752,0.25779 -7.5188,4.40387 -9.77443,3.09345 -10.52632,3.15788 -8.27068,0.70892 -16.54135,-5.34908 -9.02256,-8.2492 -7.51879,-13.64124 v -9.77444 l 4.51128,-16.17615 4.51127,-9.40924 8.27068,-6.72396 16.54135,-5.92911 z"
       id="lemnisco_medial_izquierdo"
       inkscape:transform-center-x="-4.5112796"
       inkscape:transform-center-y="-1.3748636" /><rect
       style="fill:#000000"
       id="cuerpo_trapezoide"
       width="36.090225"
       height="41.353382"
       x="235.33458"
       y="273.11041" /><ellipse
       style="fill:#000000;stroke-width:1.20097"
       id="nucleo_sensitivo_principal_derecho_del_nervio_trigemino"
       cx="213.76286"
       cy="115.28308"
       rx="14.93536"
       ry="24.772064"
       transform="matrix(0.88712098,0.46153697,-0.46774419,0.88386389,0,0)" /><ellipse
       style="fill:#000000;stroke-width:1.20097"
       id="nucleo_sensitivo_principal_izquierdo_del_nervio_trigemino"
       cx="164.45024"
       cy="386.54001"
       rx="14.93536"
       ry="24.772064"
       transform="matrix(0.77059874,-0.63732062,0.6319032,0.77504732,0,0)" /><ellipse
       style="fill:#000000;stroke-width:1.20097"
       id="nucleo_motor_derecho_del_nervio_trigemino"
       cx="231.05476"
       cy="96.929848"
       rx="14.93536"
       ry="24.772064"
       transform="matrix(0.88712098,0.46153697,-0.46774419,0.88386389,0,0)" /><ellipse
       style="fill:#000000;stroke-width:1.20097"
       id="nucleo_motor_izquierdo_del_nervio_trigemino"
       cx="123.85217"
       cy="371.07166"
       rx="14.93536"
       ry="24.772064"
       transform="matrix(0.73643858,-0.67650441,0.67132549,0.74116266,0,0)" /><path
       style="fill:#000000"
       d="m 301.5,88.899871 -11.2782,6.766917 -3.7594,3.759398 -6.01504,3.759404 13.53384,1.50375 10.52631,12.03008 9.02256,14.28571 13.53383,27.06767 24.81204,18.04512 32.33082,19.54887 -19.54887,-31.57895 -15.03759,-27.81955 -13.53384,-22.55639 -14.28571,-19.548872 -9.02256,-3.759398 -6.01504,-2.255639 z"
       id="pedunculo_cerebelar_superior_izquierdo" /><path
       style="fill:#000000"
       d="m 204.27442,88.952499 11.2782,6.76692 3.7594,3.7594 6.01504,3.759401 -13.53384,1.50376 -10.52631,12.03006 -9.02256,14.28571 -13.53383,27.06767 -24.81204,18.04513 -32.33082,19.54887 19.54887,-31.57895 15.03759,-27.81956 13.53384,-22.55639 14.28571,-19.548861 9.02256,-3.7594 6.01504,-2.25564 z"
       id="pedunculo_cerebelar_superior_derecho" /><path
       style="fill:#000000;stroke-width:0.865833"
       d="m 240.68129,122.3087 -16.0401,-1.90235 -8.68838,-2.53645 h -8.68839 l -6.68338,3.17058 -4.67836,5.70703 -6.01502,10.77997 -6.68339,6.97526 -2.00501,10.77997 v 12.04819 l 3.34169,5.07293 6.68337,6.97526 14.03509,3.17059 11.36173,3.17058 11.36174,8.8776 5.34671,5.07292 8.68839,6.97529 6.68336,14.58464 8.6884,-18.38935 10.69339,-10.77997 22.72347,-6.97525 16.70844,-6.34117 12.03009,-13.95052 -4.67837,-16.48701 -8.02005,-18.38935 -13.36674,-12.04819 -9.35673,-1.90235 -17.37679,5.07292 -13.36673,4.43882 z"
       id="cavidad_del_cuarto_ventriculo" /><ellipse
       style="fill:#000000"
       id="lemnisco_espinal_derecho"
       cx="148.86842"
       cy="249.05023"
       rx="10.526316"
       ry="9.0225563" /><ellipse
       style="fill:#000000"
       id="lemnisco_espinal_izquierdo"
       cx="347.3045"
       cy="248.79459"
       rx="10.526316"
       ry="9.0225563" /><path
       style="fill:#000000"
       d="m 221.80075,188.14799 0.75188,9.77444 6.01504,10.52631 3.00752,9.02256 11.27819,10.52632 h 5.26316 l 15.03759,-5.26316 5.26316,-12.78196 4.51128,-4.51127 6.01504,-13.53384 -3.00752,-5.26316 -6.01504,1.50376 -6.01504,6.76692 -1.50376,4.51128 -3.75939,8.27068 -3.7594,7.51879 -1.50376,4.51128"
       id="fasciculo_longitudinal_medial" /><rect
       style="fill:#000000;stroke-width:1.10186"
       id="haces_de_fibras_corticoespinales_y_corticonucleares"
       width="274.43607"
       height="69.924812"
       x="120.58646"
       y="367.09912" /></g></svg>

